<?xml version="1.0" standalone="no"?>
<!DOCTYPE svg PUBLIC "-//W3C//DTD SVG 20010904//EN"
 "http://www.w3.org/TR/2001/REC-SVG-20010904/DTD/svg10.dtd">
<svg version="1.0" xmlns="http://www.w3.org/2000/svg"
 width="192.000000pt" height="192.000000pt" viewBox="0 0 192.000000 192.000000"
 preserveAspectRatio="xMidYMid meet">
<metadata>
Created by potrace 1.14, written by Peter Selinger 2001-2017
</metadata>
<g transform="translate(0.000000,192.000000) scale(0.100000,-0.100000)"
fill="#000000" stroke="none">
<path d="M1125 1760 c3 -5 8 -10 11 -10 2 0 4 5 4 10 0 6 -5 10 -11 10 -5 0
-7 -4 -4 -10z"/>
<path d="M821 1753 c1 -5 1 -19 0 -33 -1 -20 -3 -22 -11 -10 -7 10 -10 -30
-11 -125 -4 -376 -9 -578 -14 -583 -3 -3 -6 46 -6 109 -2 149 -7 294 -16 451
l-8 127 -31 -19 -31 -20 -6 -137 c-4 -75 -8 -182 -8 -237 -2 -99 -2 -100 -9
-36 -5 36 -11 130 -15 210 -4 80 -9 147 -12 150 -9 9 -39 -18 -55 -51 -15 -28
-18 -61 -18 -186 0 -90 -4 -154 -10 -158 -7 -4 -10 50 -10 154 0 88 -4 162 -9
166 -5 3 -21 -10 -35 -28 -25 -33 -26 -38 -28 -208 l-2 -174 -6 190 -5 190
-23 -35 c-20 -29 -23 -31 -17 -10 6 24 5 24 -9 6 -13 -17 -16 -56 -16 -241 0
-207 1 -223 19 -239 11 -10 25 -15 30 -11 6 3 11 1 11 -4 0 -8 7 -7 20 1 10 7
23 9 27 4 4 -4 0 -12 -9 -17 -14 -8 -16 -40 -15 -303 2 -300 5 -324 40 -310
25 9 28 48 25 344 -2 213 -6 274 -15 272 -7 -1 -13 2 -13 8 0 5 25 10 56 10
35 0 53 -4 49 -10 -4 -6 -11 -8 -16 -4 -5 3 -16 1 -23 -5 -16 -13 -22 -555 -6
-595 10 -28 40 -35 58 -13 9 11 21 200 21 327 -1 127 -7 258 -13 278 -4 12 -4
22 1 23 43 6 83 4 83 -3 0 -4 -9 -8 -19 -8 -10 0 -21 -7 -25 -15 -8 -21 -5
-536 3 -577 8 -37 39 -50 60 -24 17 20 18 593 2 609 -23 23 -8 26 87 21 118
-6 123 -2 125 85 1 34 4 61 7 61 3 0 6 11 6 25 1 14 -2 22 -7 20 -4 -3 -10 34
-12 82 -2 53 -4 24 -5 -73 -1 -115 -6 -165 -14 -172 -10 -8 -12 65 -10 364 2
250 -1 374 -8 374 -6 0 -10 -61 -11 -167 -1 -93 -4 -159 -8 -148 -3 11 -8 -79
-11 -199 -3 -133 -9 -221 -15 -223 -7 -2 -11 127 -13 369 -4 365 -6 387 -34
388 -5 0 -7 -3 -7 -7z"/>
<path d="M1000 1750 c0 -5 5 -10 11 -10 5 0 7 5 4 10 -3 6 -8 10 -11 10 -2 0
-4 -4 -4 -10z"/>
<path d="M1050 1726 c0 -8 -12 -19 -27 -25 -26 -10 -26 -11 -3 -6 14 2 31 5
38 5 14 0 16 26 2 35 -5 3 -10 0 -10 -9z"/>
<path d="M1220 1715 c0 -8 5 -15 10 -15 6 0 10 7 10 15 0 8 -4 15 -10 15 -5 0
-10 -7 -10 -15z"/>
<path d="M970 1695 c0 -8 5 -15 10 -15 6 0 10 7 10 15 0 8 -4 15 -10 15 -5 0
-10 -7 -10 -15z"/>
<path d="M1306 1701 c-4 -7 -5 -15 -2 -18 9 -9 19 4 14 18 -4 11 -6 11 -12 0z"/>
<path d="M1070 1684 c-19 -2 -52 -9 -72 -16 l-38 -11 0 -75 c0 -66 2 -73 17
-67 93 35 263 27 303 -15 3 -3 18 -12 33 -20 52 -27 130 -122 153 -186 23 -64
34 -211 15 -200 -6 4 -9 1 -6 -6 3 -7 1 -26 -4 -43 -8 -25 -9 -26 -10 -7 -1
20 -4 21 -22 11 -27 -14 -54 6 -29 21 13 9 13 10 0 11 -8 1 -25 0 -37 0 -11
-1 -24 3 -28 8 -3 6 -14 11 -23 10 -11 0 -12 -3 -4 -6 16 -6 15 -18 -3 -37
-12 -11 -13 -21 -5 -42 9 -23 7 -30 -12 -48 -21 -19 -21 -21 -4 -24 10 -2 22
2 27 10 6 10 9 10 9 1 0 -24 -2 -28 -12 -25 -5 1 -7 -2 -3 -8 3 -5 1 -19 -6
-31 -8 -15 -8 -19 0 -15 6 4 11 2 11 -3 0 -21 -5 -26 -25 -27 -45 -2 -56 -4
-50 -13 9 -16 -23 -39 -66 -46 -30 -5 -44 -3 -50 6 -6 10 -9 11 -9 2 0 -18
-30 -16 -52 3 -14 14 -20 14 -33 4 -11 -9 -15 -9 -15 -1 0 7 -7 19 -15 27 -13
14 -15 14 -15 1 0 -9 6 -18 13 -21 6 -3 -1 -4 -16 -1 -23 5 -28 3 -25 -12 9
-48 218 -56 313 -13 58 26 82 44 147 106 52 50 80 102 99 187 8 31 17 57 22
57 4 0 3 8 -2 18 -7 13 -6 23 1 30 9 9 9 12 -2 12 -7 0 -11 2 -8 6 3 3 2 20
-2 37 -6 28 -4 34 17 44 27 13 30 6 6 -14 -13 -10 -15 -16 -5 -19 6 -3 12 -10
12 -15 0 -6 -4 -7 -10 -4 -5 3 -10 2 -10 -4 0 -5 5 -13 10 -16 6 -4 8 -15 5
-26 -5 -15 -3 -17 10 -12 10 3 21 0 27 -8 8 -12 9 -11 5 1 -2 8 2 21 9 28 8 7
14 8 14 2 0 -5 4 -10 10 -10 18 0 -2 124 -31 195 -56 135 -139 218 -271 273
-74 31 -177 45 -258 36z m537 -426 c-3 -7 -5 -2 -5 12 0 14 2 19 5 13 2 -7 2
-19 0 -25z m-26 -15 c13 -16 12 -17 -3 -4 -17 13 -22 21 -14 21 2 0 10 -8 17
-17z m9 -33 c0 -5 -5 -10 -11 -10 -5 0 -7 5 -4 10 3 6 8 10 11 10 2 0 4 -4 4
-10z m-200 -165 c10 -12 10 -15 -4 -15 -9 0 -16 -6 -16 -14 0 -21 -20 -30 -33
-16 -9 9 -9 11 -1 7 13 -7 29 19 25 41 -3 17 14 15 29 -3z m40 -91 c0 -3 -6
-12 -14 -19 -17 -17 -30 -7 -15 12 12 13 29 18 29 7z m-80 -64 c0 -5 8 -6 18
-3 15 6 15 5 4 -10 -12 -14 -16 -14 -28 -2 -16 16 -18 25 -4 25 6 0 10 -4 10
-10z m-64 -65 c-26 -19 -42 -19 -26 0 7 8 20 15 29 15 13 -1 13 -3 -3 -15z"/>
<path d="M1381 1666 c-8 -10 -9 -16 -1 -21 5 -3 13 1 16 10 9 22 -1 29 -15 11z"/>
<path d="M1455 1619 c-4 -6 -5 -13 -2 -16 7 -7 27 6 27 18 0 12 -17 12 -25 -2z"/>
<path d="M1515 1569 c-4 -6 -5 -13 -2 -16 7 -7 27 6 27 18 0 12 -17 12 -25 -2z"/>
<path d="M1565 1490 c-3 -5 1 -10 9 -10 8 0 18 5 21 10 3 6 -1 10 -9 10 -8 0
-18 -4 -21 -10z"/>
<path d="M1637 1464 c6 -15 23 -19 23 -5 0 5 -7 11 -14 14 -10 4 -13 1 -9 -9z"/>
<path d="M1610 1420 c0 -5 4 -10 9 -10 6 0 13 5 16 10 3 6 -1 10 -9 10 -9 0
-16 -4 -16 -10z"/>
<path d="M1640 1340 c0 -5 4 -10 9 -10 6 0 13 5 16 10 3 6 -1 10 -9 10 -9 0
-16 -4 -16 -10z"/>
<path d="M1670 1260 c-8 -5 -11 -12 -7 -16 4 -4 13 -2 19 4 15 15 7 24 -12 12z"/>
<path d="M990 1240 c0 -5 5 -10 11 -10 5 0 7 5 4 10 -3 6 -8 10 -11 10 -2 0
-4 -4 -4 -10z"/>
<path d="M1121 1229 c-16 -6 -21 -14 -17 -25 4 -9 1 -23 -6 -32 -11 -12 -7
-12 20 2 25 13 32 22 27 36 -5 15 -3 18 9 14 9 -3 13 -10 10 -15 -3 -5 2 -6
10 -3 9 3 16 1 16 -5 0 -6 5 -11 10 -11 16 0 12 26 -7 41 -11 10 -14 10 -9 2
4 -7 2 -13 -3 -13 -6 0 -11 5 -11 10 0 12 -17 12 -49 -1z"/>
<path d="M1074 1209 c-3 -6 -2 -15 4 -21 6 -6 12 -6 16 1 4 6 2 11 -4 11 -6 0
-8 5 -5 10 3 6 4 10 1 10 -3 0 -8 -5 -12 -11z"/>
<path d="M1400 1180 c0 -5 5 -10 11 -10 5 0 7 5 4 10 -3 6 -8 10 -11 10 -2 0
-4 -4 -4 -10z"/>
<path d="M1660 1180 c0 -5 7 -10 15 -10 8 0 15 5 15 10 0 6 -7 10 -15 10 -8 0
-15 -4 -15 -10z"/>
<path d="M995 1171 c4 -7 3 -16 -4 -21 -9 -5 -9 -10 1 -18 11 -9 14 -6 13 13
0 13 -4 27 -9 32 -5 5 -6 2 -1 -6z"/>
<path d="M1055 1170 c3 -5 11 -10 16 -10 6 0 7 5 4 10 -3 6 -11 10 -16 10 -6
0 -7 -4 -4 -10z"/>
<path d="M1174 1171 c4 -5 0 -11 -6 -14 -10 -4 -11 -7 0 -18 6 -7 12 -8 12 -3
0 6 13 9 30 8 16 -1 27 2 24 7 -3 5 -9 7 -14 4 -4 -3 -10 2 -14 10 -3 8 -13
15 -21 15 -9 0 -14 -4 -11 -9z"/>
<path d="M1621 1143 c0 -25 1 -26 9 -8 12 27 12 35 0 35 -5 0 -10 -12 -9 -27z"/>
<path d="M1450 1136 c0 -9 5 -16 10 -16 6 0 10 4 10 9 0 6 -4 13 -10 16 -5 3
-10 -1 -10 -9z"/>
<path d="M1295 1127 c7 -16 37 -19 32 -3 -2 6 -11 12 -20 14 -11 2 -15 -1 -12
-11z"/>
<path d="M1396 1132 c-2 -4 2 -15 9 -25 11 -16 13 -16 19 -2 3 9 2 13 -4 10
-6 -3 -10 -2 -10 4 0 5 6 12 13 14 7 3 6 6 -5 6 -9 1 -19 -2 -22 -7z"/>
<path d="M1090 1116 c0 -9 5 -16 10 -16 6 0 10 4 10 9 0 6 -4 13 -10 16 -5 3
-10 -1 -10 -9z"/>
<path d="M1246 1105 c-3 -9 0 -15 9 -15 16 0 20 16 6 24 -5 3 -11 -1 -15 -9z"/>
<path d="M1350 1116 c0 -2 9 -6 20 -9 11 -3 18 -1 14 4 -5 9 -34 13 -34 5z"/>
<path d="M1156 1094 c-9 -23 -8 -27 9 -20 8 3 15 1 15 -5 0 -5 -6 -12 -14 -15
-10 -4 -12 -14 -6 -41 8 -31 6 -34 -11 -30 -12 3 -19 0 -19 -9 0 -8 -4 -14
-10 -14 -5 0 -10 -5 -10 -11 0 -8 4 -9 13 0 8 6 18 7 22 3 5 -4 4 -1 0 7 -6
11 -4 13 8 8 10 -4 24 -10 32 -13 8 -3 15 -1 15 6 0 6 -4 9 -9 5 -5 -3 -12 -1
-16 5 -3 5 -1 10 5 10 7 0 8 6 2 16 -12 21 -4 61 14 68 7 3 16 -3 19 -14 3
-10 12 -21 20 -24 23 -9 5 26 -29 56 -36 32 -42 33 -50 12z"/>
<path d="M1614 1092 c-11 -8 -14 -52 -3 -52 4 0 9 14 11 30 3 17 4 30 4 30 -1
0 -6 -4 -12 -8z"/>
<path d="M1660 1090 c0 -5 7 -10 16 -10 8 0 12 5 9 10 -3 6 -10 10 -16 10 -5
0 -9 -4 -9 -10z"/>
<path d="M1100 1010 c-14 -10 -21 -22 -17 -27 5 -4 14 0 21 10 7 9 18 17 25
17 6 0 11 5 11 10 0 15 -12 12 -40 -10z"/>
<path d="M1207 1019 c7 -7 15 -10 18 -7 3 3 -2 9 -12 12 -14 6 -15 5 -6 -5z"/>
<path d="M1635 1010 c3 -5 13 -10 21 -10 8 0 12 5 9 10 -3 6 -13 10 -21 10 -8
0 -12 -4 -9 -10z"/>
<path d="M1050 980 c0 -5 5 -10 11 -10 5 0 7 5 4 10 -3 6 -8 10 -11 10 -2 0
-4 -4 -4 -10z"/>
<path d="M1651 974 c0 -11 3 -14 6 -6 3 7 2 16 -1 19 -3 4 -6 -2 -5 -13z"/>
<path d="M1080 959 c0 -5 5 -7 10 -4 6 3 10 8 10 11 0 2 -4 4 -10 4 -5 0 -10
-5 -10 -11z"/>
<path d="M830 931 c0 -16 -4 -33 -10 -36 -5 -3 -10 -1 -10 6 0 7 -3 10 -6 7
-10 -11 -15 -401 -6 -463 l10 -60 1 50 c3 64 19 33 20 -39 1 -39 -2 -47 -14
-42 -8 3 -15 1 -15 -3 0 -15 32 -22 46 -10 20 16 16 610 -3 617 -9 2 -13 -7
-13 -27z"/>
<path d="M437 943 c-4 -3 -7 -15 -7 -27 0 -19 0 -20 -14 0 -12 16 -14 -19 -13
-276 1 -162 4 -272 7 -245 l5 50 8 -57 c9 -59 19 -72 32 -40 10 23 18 461 10
540 -6 58 -13 71 -28 55z m-10 -140 c-3 -10 -5 -4 -5 12 0 17 2 24 5 18 2 -7
2 -21 0 -30z"/>
<path d="M908 799 c-3 -178 -3 -194 3 -351 2 -64 6 -115 9 -112 6 7 1 606 -5
613 -3 2 -6 -65 -7 -150z"/>
<path d="M1136 939 c-16 -5 -34 -5 -40 -2 -6 4 -2 -3 8 -15 20 -23 9 -31 -12
-10 -7 7 -12 8 -12 3 0 -6 -5 -3 -10 5 -8 11 -9 9 -6 -10 3 -14 5 -28 5 -32 1
-5 6 -8 12 -8 5 0 7 5 4 10 -9 15 5 12 22 -5 8 -9 12 -23 9 -33 -4 -9 4 -4 18
11 14 16 29 26 33 24 5 -3 14 7 20 24 9 23 9 29 -2 29 -7 0 -15 4 -17 8 -1 5
-16 5 -32 1z m24 -23 c0 -2 -7 -9 -15 -16 -13 -11 -14 -10 -9 4 5 14 24 23 24
12z"/>
<path d="M1603 937 c5 -15 37 -22 37 -9 0 5 -9 12 -21 15 -13 3 -19 1 -16 -6z"/>
<path d="M964 921 c1 -17 26 -28 26 -11 0 6 -4 9 -9 5 -5 -3 -11 0 -14 7 -2 9
-4 8 -3 -1z"/>
<path d="M1193 861 c1 -11 6 -17 14 -14 10 4 11 9 2 19 -15 19 -18 18 -16 -5z"/>
<path d="M1558 867 c8 -9 11 -21 7 -26 -3 -7 0 -8 9 -5 22 8 20 17 -6 33 -21
13 -22 13 -10 -2z"/>
<path d="M1000 863 c0 -13 36 -40 48 -36 8 4 22 -4 33 -18 10 -13 19 -19 19
-12 0 20 -53 67 -77 68 -13 0 -23 -1 -23 -2z"/>
<path d="M1619 853 c-13 -16 -12 -17 4 -4 16 13 21 21 13 21 -2 0 -10 -8 -17
-17z"/>
<path d="M1166 852 c-2 -4 2 -16 10 -27 8 -10 14 -14 14 -8 0 7 -5 15 -10 18
-6 4 -8 11 -5 16 4 5 4 9 1 9 -3 0 -7 -3 -10 -8z"/>
<path d="M1490 845 c-7 -9 -11 -17 -9 -20 3 -2 10 5 17 15 14 24 10 26 -8 5z"/>
<path d="M1579 803 c-13 -16 -12 -17 4 -4 16 13 21 21 13 21 -2 0 -10 -8 -17
-17z"/>
<path d="M1509 796 c10 -11 8 -16 -6 -24 -10 -6 -16 -13 -13 -15 3 -3 15 3 28
14 25 19 22 39 -5 39 -12 0 -13 -3 -4 -14z"/>
<path d="M1545 770 c-13 -20 -111 -87 -165 -112 -94 -44 -230 -65 -308 -47
-72 16 -122 20 -122 10 0 -13 62 -28 124 -30 28 -1 53 -4 56 -6 17 -11 161 20
231 50 71 30 199 118 199 138 0 10 -8 9 -15 -3z"/>
<path d="M1434 748 c-5 -7 -9 -21 -9 -32 -2 -19 -2 -19 12 0 8 10 16 18 19 16
12 -8 11 4 -1 15 -11 10 -16 10 -21 1z"/>
<path d="M1370 707 c0 -19 16 -31 24 -18 3 5 -1 14 -9 21 -12 10 -15 10 -15
-3z"/>
<path d="M954 667 c-10 -21 -8 -23 13 -19 19 3 21 7 12 23 -12 24 -12 24 -25
-4z"/>
<path d="M1290 671 c0 -12 5 -21 10 -21 6 0 10 6 10 14 0 8 -4 18 -10 21 -5 3
-10 -3 -10 -14z"/>
<path d="M1045 657 c-4 -10 -5 -21 -1 -24 10 -10 18 4 13 24 -4 17 -4 17 -12
0z"/>
<path d="M1210 656 c0 -8 -6 -17 -12 -19 -7 -3 -3 -6 10 -6 16 -1 22 5 22 19
0 11 -4 20 -10 20 -5 0 -10 -6 -10 -14z"/>
<path d="M1130 645 c0 -10 9 -15 28 -14 23 2 24 2 4 6 -12 2 -20 9 -17 14 4 5
1 9 -4 9 -6 0 -11 -7 -11 -15z"/>
<path d="M942 580 c0 -14 2 -19 5 -12 2 6 2 18 0 25 -3 6 -5 1 -5 -13z"/>
<path d="M404 299 c-3 -5 83 -8 213 -8 149 1 201 4 163 10 -76 10 -369 9 -376
-2z"/>
<path d="M370 250 c0 -6 72 -10 198 -9 119 0 189 4 177 9 -29 12 -375 12 -375
0z"/>
<path d="M332 212 c-7 -2 -12 -15 -12 -28 l0 -24 363 1 c378 1 385 3 182 38
-87 15 -153 19 -315 18 -113 0 -211 -2 -218 -5z"/>
<path d="M308 143 c7 -3 16 -2 19 1 4 3 -2 6 -13 5 -11 0 -14 -3 -6 -6z"/>
<path d="M120 109 c0 -22 186 -29 733 -29 409 0 417 0 417 20 0 19 -9 20 -575
22 -521 3 -575 1 -575 -13z"/>
</g>
</svg>
