{
    "asset" : {
        "generator" : "Khronos glTF Blender I/O v1.6.16",
        "version" : "2.0"
    },
    "scene" : 0,
    "scenes" : [
        {
            "name" : "Scene",
            "nodes" : [
                0
            ]
        }
    ],
    "nodes" : [
        {
            "mesh" : 0,
            "name" : "PeanutButter_2"
        }
    ],
    "materials" : [
        {
            "doubleSided" : true,
            "name" : "LightYellow",
            "pbrMetallicRoughness" : {
                "baseColorFactor" : [
                    0.4575255215167999,
                    0.32352927327156067,
                    0.1709245890378952,
                    1
                ],
                "metallicFactor" : 0,
                "roughnessFactor" : 0.5
            }
        },
        {
            "doubleSided" : true,
            "name" : "Blue",
            "pbrMetallicRoughness" : {
                "baseColorFactor" : [
                    0.0627019852399826,
                    0.13862018287181854,
                    0.3423786163330078,
                    1
                ],
                "metallicFactor" : 0,
                "roughnessFactor" : 0.5
            }
        },
        {
            "doubleSided" : true,
            "name" : "Brown",
            "pbrMetallicRoughness" : {
                "baseColorFactor" : [
                    0.16263727843761444,
                    0.10511866211891174,
                    0.04624766856431961,
                    1
                ],
                "metallicFactor" : 0,
                "roughnessFactor" : 0.5
            }
        }
    ],
    "meshes" : [
        {
            "name" : "Cylinder.042",
            "primitives" : [
                {
                    "attributes" : {
                        "POSITION" : 0,
                        "NORMAL" : 1
                    },
                    "indices" : 2,
                    "material" : 0
                },
                {
                    "attributes" : {
                        "POSITION" : 3,
                        "NORMAL" : 4
                    },
                    "indices" : 5,
                    "material" : 1
                },
                {
                    "attributes" : {
                        "POSITION" : 6,
                        "NORMAL" : 7
                    },
                    "indices" : 8,
                    "material" : 2
                }
            ]
        }
    ],
    "accessors" : [
        {
            "bufferView" : 0,
            "componentType" : 5126,
            "count" : 170,
            "max" : [
                0.23063302040100098,
                0.6152908802032471,
                0.21934504806995392
            ],
            "min" : [
                -0.2306329905986786,
                -0.0021025827154517174,
                -0.21934498846530914
            ],
            "type" : "VEC3"
        },
        {
            "bufferView" : 1,
            "componentType" : 5126,
            "count" : 170,
            "type" : "VEC3"
        },
        {
            "bufferView" : 2,
            "componentType" : 5123,
            "count" : 264,
            "type" : "SCALAR"
        },
        {
            "bufferView" : 3,
            "componentType" : 5126,
            "count" : 120,
            "max" : [
                0.2373037040233612,
                0.47968778014183044,
                0.22568926215171814
            ],
            "min" : [
                -0.23730367422103882,
                0.1464730054140091,
                -0.22568918764591217
            ],
            "type" : "VEC3"
        },
        {
            "bufferView" : 4,
            "componentType" : 5126,
            "count" : 120,
            "type" : "VEC3"
        },
        {
            "bufferView" : 5,
            "componentType" : 5123,
            "count" : 180,
            "type" : "SCALAR"
        },
        {
            "bufferView" : 6,
            "componentType" : 5126,
            "count" : 126,
            "max" : [
                0.20083972811698914,
                0.7221555709838867,
                0.19100990891456604
            ],
            "min" : [
                -0.20083965361118317,
                0.6152908802032471,
                -0.19100983440876007
            ],
            "type" : "VEC3"
        },
        {
            "bufferView" : 7,
            "componentType" : 5126,
            "count" : 126,
            "type" : "VEC3"
        },
        {
            "bufferView" : 8,
            "componentType" : 5123,
            "count" : 204,
            "type" : "SCALAR"
        }
    ],
    "bufferViews" : [
        {
            "buffer" : 0,
            "byteLength" : 2040,
            "byteOffset" : 0
        },
        {
            "buffer" : 0,
            "byteLength" : 2040,
            "byteOffset" : 2040
        },
        {
            "buffer" : 0,
            "byteLength" : 528,
            "byteOffset" : 4080
        },
        {
            "buffer" : 0,
            "byteLength" : 1440,
            "byteOffset" : 4608
        },
        {
            "buffer" : 0,
            "byteLength" : 1440,
            "byteOffset" : 6048
        },
        {
            "buffer" : 0,
            "byteLength" : 360,
            "byteOffset" : 7488
        },
        {
            "buffer" : 0,
            "byteLength" : 1512,
            "byteOffset" : 7848
        },
        {
            "buffer" : 0,
            "byteLength" : 1512,
            "byteOffset" : 9360
        },
        {
            "buffer" : 0,
            "byteLength" : 408,
            "byteOffset" : 10872
        }
    ],
    "buffers" : [
        {
            "byteLength" : 11280,
            "uri" : "data:application/octet-stream;base64,"
        }
    ]
}
