<?xml version="1.0" standalone="no"?>
<!DOCTYPE svg PUBLIC "-//W3C//DTD SVG 20010904//EN"
 "http://www.w3.org/TR/2001/REC-SVG-20010904/DTD/svg10.dtd">
<svg version="1.0" xmlns="http://www.w3.org/2000/svg"
 width="196.000000pt" height="196.000000pt" viewBox="0 0 196.000000 196.000000"
 preserveAspectRatio="xMidYMid meet">
<metadata>
Created by potrace 1.11, written by Peter Selinger 2001-2013
</metadata>
<g transform="translate(0.000000,196.000000) scale(0.100000,-0.100000)"
fill="#000000" stroke="none">
<path d="M0 980 l0 -980 980 0 980 0 0 980 0 980 -980 0 -980 0 0 -980z m1480
460 l0 -170 30 0 30 0 0 -175 0 -175 -30 0 -30 0 0 -200 0 -200 -30 0 -30 0 0
315 0 315 -200 0 -200 0 0 -30 0 -30 -225 0 -225 0 0 30 c0 27 -3 30 -30 30
l-30 0 0 170 0 170 30 0 30 0 0 60 0 60 455 0 455 0 0 -170z"/>
</g>
</svg>
